<?xml version="1.0" encoding="utf-8"?>
<!-- Generator: Adobe Illustrator 18.0.0, SVG Export Plug-In . SVG Version: 6.00 Build 0)  -->
<!DOCTYPE svg PUBLIC "-//W3C//DTD SVG 1.1//EN" "http://www.w3.org/Graphics/SVG/1.1/DTD/svg11.dtd">
<svg version="1.1" id="Layer_1" xmlns="http://www.w3.org/2000/svg" xmlns:xlink="http://www.w3.org/1999/xlink" x="0px" y="0px"
	 viewBox="0 0 612 792" enable-background="new 0 0 612 792" xml:space="preserve">
<g>
	<path fill="#FFFFFF" d="M170.3,171.5c-25.8,34.3-45.9,71-52.4,113.7c-7.3,48.2,6.7,89.9,41.6,123.5c18.7,17.9,41.5,29.6,68.5,20.8
		c27.4-8.9,38.1-32.3,41.4-58c7.4-57.8-7.8-106.4-63.4-137c9.7-10.8,19.3-21.3,30.9-34.3c14.7,12.5,28.9,24.7,43.2,36.9
		c1-0.2,2.1-0.5,3.1-0.7c-7.3-19.6-14.5-39.2-22.8-61.4c13.1-14.9,28.4-32.3,44.9-51c14.8,16.7,29.1,32.4,42.6,48.8
		c1.9,2.2,0.7,8.1-0.6,11.6c-6.6,17.8-13.7,35.4-17.8,54c14.4-12.4,28.8-24.8,44.2-38.1c11,12.2,20.5,22.7,30.9,34.3
		c-26.9,13.7-46.3,33-55.6,61.2c-9.8,30-13.7,60.3-4.1,91.1c13.9,44.3,51.6,58.1,90.8,33.4c49-30.9,73.5-102.3,52.3-163.4
		c-9.1-26.2-25.8-49.7-39.3-74.3c-2.2-4.1-5.6-7.5-9.6-12.8c97.9,57.6,140.5,166.2,117.6,276c-24.9,119.7-117.8,199.2-236.4,202.9
		c-124.8,3.9-230-72.3-262.3-190.7C25.8,339.1,81.4,226,170.3,171.5z"/>
</g>
</svg>
